<?xml version="1.0" encoding="UTF-8" standalone="no"?>
<!DOCTYPE svg PUBLIC "-//W3C//DTD SVG 1.1//EN"
 "http://www.w3.org/Graphics/SVG/1.1/DTD/svg11.dtd">
<!-- Generated by graphviz version 2.40.1 (20161225.0304)
 -->
<!-- Title: dependencies Pages: 1 -->
<svg width="1090pt" height="284pt"
 viewBox="0.00 0.00 1090.00 284.00" xmlns="http://www.w3.org/2000/svg" xmlns:xlink="http://www.w3.org/1999/xlink">
<g id="graph0" class="graph" transform="scale(1 1) rotate(0) translate(4 280)">
<title>dependencies</title>
<polygon fill="#ffffff" stroke="transparent" points="-4,4 -4,-280 1086,-280 1086,4 -4,4"/>
<text text-anchor="start" x="520.0091" y="-42.4" font-family="sans-serif" font-weight="bold" font-size="14.00" fill="#000000">Legend</text>
<polygon fill="#ffffb3" stroke="transparent" points="307,-10 307,-30 327,-30 327,-10 307,-10"/>
<text text-anchor="start" x="330.629" y="-15.4" font-family="sans-serif" font-size="14.00" fill="#000000"> &#160;Declarations</text>
<polygon fill="#8dd3c7" stroke="transparent" points="420,-10 420,-30 440,-30 440,-10 420,-10"/>
<text text-anchor="start" x="443.7251" y="-15.4" font-family="sans-serif" font-size="14.00" fill="#000000"> &#160;Module</text>
<polygon fill="#80b1d3" stroke="transparent" points="506,-10 506,-30 526,-30 526,-10 506,-10"/>
<text text-anchor="start" x="529.7812" y="-15.4" font-family="sans-serif" font-size="14.00" fill="#000000"> &#160;Bootstrap</text>
<polygon fill="#fdb462" stroke="transparent" points="603,-10 603,-30 623,-30 623,-10 603,-10"/>
<text text-anchor="start" x="626.6732" y="-15.4" font-family="sans-serif" font-size="14.00" fill="#000000"> &#160;Providers</text>
<polygon fill="#fb8072" stroke="transparent" points="699,-10 699,-30 719,-30 719,-10 699,-10"/>
<text text-anchor="start" x="722.7258" y="-15.4" font-family="sans-serif" font-size="14.00" fill="#000000"> &#160;Exports</text>
<g id="clust1" class="cluster">
<title>cluster_AppModule</title>
<polygon fill="none" stroke="#000000" stroke-dasharray="1,5" points="8,-70 8,-268 782,-268 782,-70 8,-70"/>
</g>
<g id="clust2" class="cluster">
<title>cluster_AppModule_declarations</title>
<polygon fill="none" stroke="#000000" points="554,-78 554,-130 774,-130 774,-78 554,-78"/>
</g>
<g id="clust5" class="cluster">
<title>cluster_AppModule_imports</title>
<polygon fill="none" stroke="#000000" points="402,-78 402,-130 546,-130 546,-78 402,-78"/>
</g>
<g id="clust7" class="cluster">
<title>cluster_AppModule_bootstrap</title>
<polygon fill="none" stroke="#000000" points="412,-208 412,-260 536,-260 536,-208 412,-208"/>
</g>
<g id="clust8" class="cluster">
<title>cluster_AppModule_providers</title>
<polygon fill="none" stroke="#000000" points="16,-78 16,-130 394,-130 394,-78 16,-78"/>
</g>
<g id="clust15" class="cluster">
<title>cluster_HomePageModule</title>
<polygon fill="none" stroke="#000000" stroke-dasharray="1,5" points="938,-70 938,-195 1074,-195 1074,-70 938,-70"/>
</g>
<g id="clust16" class="cluster">
<title>cluster_HomePageModule_declarations</title>
<polygon fill="none" stroke="#000000" points="959,-78 959,-130 1053,-130 1053,-78 959,-78"/>
</g>
<g id="clust22" class="cluster">
<title>cluster_ModelPageModule</title>
<polygon fill="none" stroke="#000000" stroke-dasharray="1,5" points="790,-143 790,-195 930,-195 930,-143 790,-143"/>
</g>
<!-- AppComponent -->
<g id="node1" class="node">
<title>AppComponent</title>
<polygon fill="#ffffb3" stroke="#000000" points="667.9399,-122 562.0601,-122 562.0601,-86 667.9399,-86 667.9399,-122"/>
<text text-anchor="middle" x="615" y="-99.8" font-family="Times,serif" font-size="14.00" fill="#000000">AppComponent</text>
</g>
<!-- AppModule -->
<g id="node3" class="node">
<title>AppModule</title>
<polygon fill="#8dd3c7" stroke="#000000" points="515.6571,-187 512.6571,-191 491.6571,-191 488.6571,-187 432.3429,-187 432.3429,-151 515.6571,-151 515.6571,-187"/>
<text text-anchor="middle" x="474" y="-164.8" font-family="Times,serif" font-size="14.00" fill="#000000">AppModule</text>
</g>
<!-- AppComponent&#45;&gt;AppModule -->
<g id="edge1" class="edge">
<title>AppComponent&#45;&gt;AppModule</title>
<path fill="none" stroke="#000000" d="M615,-122.027C615,-138.3976 615,-160 615,-160 615,-160 525.9229,-160 525.9229,-160"/>
<polygon fill="#000000" stroke="#000000" points="525.9229,-156.5001 515.9229,-160 525.9229,-163.5001 525.9229,-156.5001"/>
</g>
<!-- ModelPage -->
<g id="node2" class="node">
<title>ModelPage</title>
<polygon fill="#ffffb3" stroke="#000000" points="765.762,-122 686.238,-122 686.238,-86 765.762,-86 765.762,-122"/>
<text text-anchor="middle" x="726" y="-99.8" font-family="Times,serif" font-size="14.00" fill="#000000">ModelPage</text>
</g>
<!-- ModelPage&#45;&gt;AppModule -->
<g id="edge2" class="edge">
<title>ModelPage&#45;&gt;AppModule</title>
<path fill="none" stroke="#000000" d="M712.7064,-122.1061C712.7064,-141.3391 712.7064,-169 712.7064,-169 712.7064,-169 525.8526,-169 525.8526,-169"/>
<polygon fill="#000000" stroke="#000000" points="525.8527,-165.5001 515.8526,-169 525.8526,-172.5001 525.8527,-165.5001"/>
</g>
<!-- ModelPageModule -->
<g id="node10" class="node">
<title>ModelPageModule</title>
<polygon fill="#8dd3c7" stroke="#000000" points="921.8118,-187 918.8118,-191 897.8118,-191 894.8118,-187 798.1882,-187 798.1882,-151 921.8118,-151 921.8118,-187"/>
<text text-anchor="middle" x="860" y="-164.8" font-family="Times,serif" font-size="14.00" fill="#000000">ModelPageModule</text>
</g>
<!-- ModelPage&#45;&gt;ModelPageModule -->
<g id="edge8" class="edge">
<title>ModelPage&#45;&gt;ModelPageModule</title>
<path fill="none" stroke="#000000" d="M739.2936,-122.2921C739.2936,-144.2057 739.2936,-178 739.2936,-178 739.2936,-178 788.2324,-178 788.2324,-178"/>
<polygon fill="#000000" stroke="#000000" points="788.2324,-181.5001 798.2324,-178 788.2324,-174.5001 788.2324,-181.5001"/>
</g>
<!-- AppComponent  -->
<g id="node5" class="node">
<title>AppComponent </title>
<polygon fill="#80b1d3" stroke="#000000" points="528.439,-252 419.561,-252 419.561,-216 528.439,-216 528.439,-252"/>
<text text-anchor="middle" x="474" y="-229.8" font-family="Times,serif" font-size="14.00" fill="#000000">AppComponent </text>
</g>
<!-- AppModule&#45;&gt;AppComponent  -->
<g id="edge4" class="edge">
<title>AppModule&#45;&gt;AppComponent </title>
<path fill="none" stroke="#000000" stroke-dasharray="1,5" d="M474,-187.1061C474,-187.1061 474,-205.991 474,-205.991"/>
<polygon fill="#000000" stroke="#000000" points="470.5001,-205.9909 474,-215.991 477.5001,-205.991 470.5001,-205.9909"/>
</g>
<!-- AppRoutingModule -->
<g id="node4" class="node">
<title>AppRoutingModule</title>
<polygon fill="#8dd3c7" stroke="#000000" points="538.2744,-122 535.2744,-126 514.2744,-126 511.2744,-122 409.7256,-122 409.7256,-86 538.2744,-86 538.2744,-122"/>
<text text-anchor="middle" x="474" y="-99.8" font-family="Times,serif" font-size="14.00" fill="#000000">AppRoutingModule</text>
</g>
<!-- AppRoutingModule&#45;&gt;AppModule -->
<g id="edge3" class="edge">
<title>AppRoutingModule&#45;&gt;AppModule</title>
<path fill="none" stroke="#000000" d="M474,-122.1061C474,-122.1061 474,-140.991 474,-140.991"/>
<polygon fill="#000000" stroke="#000000" points="470.5001,-140.9909 474,-150.991 477.5001,-140.991 470.5001,-140.9909"/>
</g>
<!-- NetworkService -->
<g id="node6" class="node">
<title>NetworkService</title>
<ellipse fill="#fdb462" stroke="#000000" cx="312" cy="-104" rx="73.5541" ry="18"/>
<text text-anchor="middle" x="312" y="-99.8" font-family="Times,serif" font-size="14.00" fill="#000000">NetworkService</text>
</g>
<!-- NetworkService&#45;&gt;AppModule -->
<g id="edge5" class="edge">
<title>NetworkService&#45;&gt;AppModule</title>
<path fill="none" stroke="#000000" d="M312,-122.0225C312,-139.3734 312,-163 312,-163 312,-163 422.281,-163 422.281,-163"/>
<polygon fill="#000000" stroke="#000000" points="422.281,-166.5001 432.281,-163 422.2809,-159.5001 422.281,-166.5001"/>
</g>
<!-- ThemeSwitcheService -->
<g id="node7" class="node">
<title>ThemeSwitcheService</title>
<ellipse fill="#fdb462" stroke="#000000" cx="122" cy="-104" rx="97.8286" ry="18"/>
<text text-anchor="middle" x="122" y="-99.8" font-family="Times,serif" font-size="14.00" fill="#000000">ThemeSwitcheService</text>
</g>
<!-- ThemeSwitcheService&#45;&gt;AppModule -->
<g id="edge6" class="edge">
<title>ThemeSwitcheService&#45;&gt;AppModule</title>
<path fill="none" stroke="#000000" d="M122,-122.2843C122,-143.3211 122,-175 122,-175 122,-175 422.2387,-175 422.2387,-175"/>
<polygon fill="#000000" stroke="#000000" points="422.2387,-178.5001 432.2387,-175 422.2387,-171.5001 422.2387,-178.5001"/>
</g>
<!-- HomePage -->
<g id="node8" class="node">
<title>HomePage</title>
<polygon fill="#ffffb3" stroke="#000000" points="1044.9248,-122 967.0752,-122 967.0752,-86 1044.9248,-86 1044.9248,-122"/>
<text text-anchor="middle" x="1006" y="-99.8" font-family="Times,serif" font-size="14.00" fill="#000000">HomePage</text>
</g>
<!-- HomePageModule -->
<g id="node9" class="node">
<title>HomePageModule</title>
<polygon fill="#8dd3c7" stroke="#000000" points="1066.4734,-187 1063.4734,-191 1042.4734,-191 1039.4734,-187 945.5266,-187 945.5266,-151 1066.4734,-151 1066.4734,-187"/>
<text text-anchor="middle" x="1006" y="-164.8" font-family="Times,serif" font-size="14.00" fill="#000000">HomePageModule</text>
</g>
<!-- HomePage&#45;&gt;HomePageModule -->
<g id="edge7" class="edge">
<title>HomePage&#45;&gt;HomePageModule</title>
<path fill="none" stroke="#000000" d="M1006,-122.1061C1006,-122.1061 1006,-140.991 1006,-140.991"/>
<polygon fill="#000000" stroke="#000000" points="1002.5001,-140.9909 1006,-150.991 1009.5001,-140.991 1002.5001,-140.9909"/>
</g>
</g>
</svg>
