<?xml version="1.0" encoding="UTF-8" standalone="no"?>
<!DOCTYPE svg PUBLIC "-//W3C//DTD SVG 1.1//EN"
 "http://www.w3.org/Graphics/SVG/1.1/DTD/svg11.dtd">
<!-- Generated by graphviz version 2.40.1 (20161225.0304)
 -->
<!-- Title: dependencies Pages: 1 -->
<svg width="798pt" height="284pt"
 viewBox="0.00 0.00 798.00 284.00" xmlns="http://www.w3.org/2000/svg" xmlns:xlink="http://www.w3.org/1999/xlink">
<g id="graph0" class="graph" transform="scale(1 1) rotate(0) translate(4 280)">
<title>dependencies</title>
<polygon fill="#ffffff" stroke="transparent" points="-4,4 -4,-280 794,-280 794,4 -4,4"/>
<text text-anchor="start" x="374.0091" y="-42.4" font-family="sans-serif" font-weight="bold" font-size="14.00" fill="#000000">Legend</text>
<polygon fill="#ffffb3" stroke="transparent" points="161,-10 161,-30 181,-30 181,-10 161,-10"/>
<text text-anchor="start" x="184.629" y="-15.4" font-family="sans-serif" font-size="14.00" fill="#000000"> &#160;Declarations</text>
<polygon fill="#8dd3c7" stroke="transparent" points="274,-10 274,-30 294,-30 294,-10 274,-10"/>
<text text-anchor="start" x="297.7251" y="-15.4" font-family="sans-serif" font-size="14.00" fill="#000000"> &#160;Module</text>
<polygon fill="#80b1d3" stroke="transparent" points="360,-10 360,-30 380,-30 380,-10 360,-10"/>
<text text-anchor="start" x="383.7812" y="-15.4" font-family="sans-serif" font-size="14.00" fill="#000000"> &#160;Bootstrap</text>
<polygon fill="#fdb462" stroke="transparent" points="457,-10 457,-30 477,-30 477,-10 457,-10"/>
<text text-anchor="start" x="480.6732" y="-15.4" font-family="sans-serif" font-size="14.00" fill="#000000"> &#160;Providers</text>
<polygon fill="#fb8072" stroke="transparent" points="553,-10 553,-30 573,-30 573,-10 553,-10"/>
<text text-anchor="start" x="576.7258" y="-15.4" font-family="sans-serif" font-size="14.00" fill="#000000"> &#160;Exports</text>
<g id="clust1" class="cluster">
<title>cluster_AppModule</title>
<polygon fill="none" stroke="#000000" stroke-dasharray="1,5" points="8,-70 8,-268 782,-268 782,-70 8,-70"/>
</g>
<g id="clust2" class="cluster">
<title>cluster_AppModule_declarations</title>
<polygon fill="none" stroke="#000000" points="554,-78 554,-130 774,-130 774,-78 554,-78"/>
</g>
<g id="clust5" class="cluster">
<title>cluster_AppModule_imports</title>
<polygon fill="none" stroke="#000000" points="402,-78 402,-130 546,-130 546,-78 402,-78"/>
</g>
<g id="clust7" class="cluster">
<title>cluster_AppModule_bootstrap</title>
<polygon fill="none" stroke="#000000" points="412,-208 412,-260 536,-260 536,-208 412,-208"/>
</g>
<g id="clust8" class="cluster">
<title>cluster_AppModule_providers</title>
<polygon fill="none" stroke="#000000" points="16,-78 16,-130 394,-130 394,-78 16,-78"/>
</g>
<!-- AppComponent -->
<g id="node1" class="node">
<title>AppComponent</title>
<polygon fill="#ffffb3" stroke="#000000" points="765.9399,-122 660.0601,-122 660.0601,-86 765.9399,-86 765.9399,-122"/>
<text text-anchor="middle" x="713" y="-99.8" font-family="Times,serif" font-size="14.00" fill="#000000">AppComponent</text>
</g>
<!-- AppModule -->
<g id="node3" class="node">
<title>AppModule</title>
<polygon fill="#8dd3c7" stroke="#000000" points="515.6571,-187 512.6571,-191 491.6571,-191 488.6571,-187 432.3429,-187 432.3429,-151 515.6571,-151 515.6571,-187"/>
<text text-anchor="middle" x="474" y="-164.8" font-family="Times,serif" font-size="14.00" fill="#000000">AppModule</text>
</g>
<!-- AppComponent&#45;&gt;AppModule -->
<g id="edge1" class="edge">
<title>AppComponent&#45;&gt;AppModule</title>
<path fill="none" stroke="#000000" d="M713,-122.2843C713,-143.3211 713,-175 713,-175 713,-175 525.9041,-175 525.9041,-175"/>
<polygon fill="#000000" stroke="#000000" points="525.9041,-171.5001 515.9041,-175 525.9041,-178.5001 525.9041,-171.5001"/>
</g>
<!-- ModelPage -->
<g id="node2" class="node">
<title>ModelPage</title>
<polygon fill="#ffffb3" stroke="#000000" points="641.762,-122 562.238,-122 562.238,-86 641.762,-86 641.762,-122"/>
<text text-anchor="middle" x="602" y="-99.8" font-family="Times,serif" font-size="14.00" fill="#000000">ModelPage</text>
</g>
<!-- ModelPage&#45;&gt;AppModule -->
<g id="edge2" class="edge">
<title>ModelPage&#45;&gt;AppModule</title>
<path fill="none" stroke="#000000" d="M602,-122.0225C602,-139.3734 602,-163 602,-163 602,-163 525.912,-163 525.912,-163"/>
<polygon fill="#000000" stroke="#000000" points="525.912,-159.5001 515.912,-163 525.912,-166.5001 525.912,-159.5001"/>
</g>
<!-- AppComponent  -->
<g id="node5" class="node">
<title>AppComponent </title>
<polygon fill="#80b1d3" stroke="#000000" points="528.439,-252 419.561,-252 419.561,-216 528.439,-216 528.439,-252"/>
<text text-anchor="middle" x="474" y="-229.8" font-family="Times,serif" font-size="14.00" fill="#000000">AppComponent </text>
</g>
<!-- AppModule&#45;&gt;AppComponent  -->
<g id="edge4" class="edge">
<title>AppModule&#45;&gt;AppComponent </title>
<path fill="none" stroke="#000000" stroke-dasharray="1,5" d="M474,-187.1061C474,-187.1061 474,-205.991 474,-205.991"/>
<polygon fill="#000000" stroke="#000000" points="470.5001,-205.9909 474,-215.991 477.5001,-205.991 470.5001,-205.9909"/>
</g>
<!-- AppRoutingModule -->
<g id="node4" class="node">
<title>AppRoutingModule</title>
<polygon fill="#8dd3c7" stroke="#000000" points="538.2744,-122 535.2744,-126 514.2744,-126 511.2744,-122 409.7256,-122 409.7256,-86 538.2744,-86 538.2744,-122"/>
<text text-anchor="middle" x="474" y="-99.8" font-family="Times,serif" font-size="14.00" fill="#000000">AppRoutingModule</text>
</g>
<!-- AppRoutingModule&#45;&gt;AppModule -->
<g id="edge3" class="edge">
<title>AppRoutingModule&#45;&gt;AppModule</title>
<path fill="none" stroke="#000000" d="M474,-122.1061C474,-122.1061 474,-140.991 474,-140.991"/>
<polygon fill="#000000" stroke="#000000" points="470.5001,-140.9909 474,-150.991 477.5001,-140.991 470.5001,-140.9909"/>
</g>
<!-- NetworkService -->
<g id="node6" class="node">
<title>NetworkService</title>
<ellipse fill="#fdb462" stroke="#000000" cx="312" cy="-104" rx="73.5541" ry="18"/>
<text text-anchor="middle" x="312" y="-99.8" font-family="Times,serif" font-size="14.00" fill="#000000">NetworkService</text>
</g>
<!-- NetworkService&#45;&gt;AppModule -->
<g id="edge5" class="edge">
<title>NetworkService&#45;&gt;AppModule</title>
<path fill="none" stroke="#000000" d="M312,-122.0225C312,-139.3734 312,-163 312,-163 312,-163 422.281,-163 422.281,-163"/>
<polygon fill="#000000" stroke="#000000" points="422.281,-166.5001 432.281,-163 422.2809,-159.5001 422.281,-166.5001"/>
</g>
<!-- ThemeSwitcheService -->
<g id="node7" class="node">
<title>ThemeSwitcheService</title>
<ellipse fill="#fdb462" stroke="#000000" cx="122" cy="-104" rx="97.8286" ry="18"/>
<text text-anchor="middle" x="122" y="-99.8" font-family="Times,serif" font-size="14.00" fill="#000000">ThemeSwitcheService</text>
</g>
<!-- ThemeSwitcheService&#45;&gt;AppModule -->
<g id="edge6" class="edge">
<title>ThemeSwitcheService&#45;&gt;AppModule</title>
<path fill="none" stroke="#000000" d="M122,-122.2843C122,-143.3211 122,-175 122,-175 122,-175 422.2387,-175 422.2387,-175"/>
<polygon fill="#000000" stroke="#000000" points="422.2387,-178.5001 432.2387,-175 422.2387,-171.5001 422.2387,-178.5001"/>
</g>
</g>
</svg>
